<?xml version="1.0" encoding="UTF-8" standalone="no"?>
<!-- Created with Inkscape (http://www.inkscape.org/) -->

<svg
   width="5.8210001mm"
   height="5.8208399mm"
   viewBox="0 0 5.8210001 5.8208399"
   version="1.1"
   id="svg1"
   inkscape:version="1.3.2 (091e20e, 2023-11-25)"
   sodipodi:docname="cursor-hand.svg"
   xmlns:inkscape="http://www.inkscape.org/namespaces/inkscape"
   xmlns:sodipodi="http://sodipodi.sourceforge.net/DTD/sodipodi-0.dtd"
   xmlns="http://www.w3.org/2000/svg"
   xmlns:svg="http://www.w3.org/2000/svg">
  <sodipodi:namedview
     id="namedview1"
     pagecolor="#ffffff"
     bordercolor="#000000"
     borderopacity="0.25"
     inkscape:showpageshadow="2"
     inkscape:pageopacity="0.0"
     inkscape:pagecheckerboard="0"
     inkscape:deskcolor="#d1d1d1"
     inkscape:document-units="mm"
     inkscape:zoom="21.455153"
     inkscape:cx="10.859862"
     inkscape:cy="12.864042"
     inkscape:window-width="1440"
     inkscape:window-height="847"
     inkscape:window-x="0"
     inkscape:window-y="25"
     inkscape:window-maximized="0"
     inkscape:current-layer="layer1" />
  <defs
     id="defs1" />
  <g
     inkscape:label="Layer 1"
     inkscape:groupmode="layer"
     id="layer1">
    <path
       d="m 2.0573026,0 h 0.52917 v 0.26459 h 0.26458 v 1.05833 h 0.52917 V 1.5875 h 0.79375 v 0.26459 h 0.52917 v 0.26458 h 0.26458 v 0.26458 h 0.26458 v 1.85209 h -0.26458 v 0.79375 h -0.26458 v 0.79375 h -2.64584 V 5.02709 h -0.26458 V 4.49792 h -0.26458 V 3.96875 h -0.26459 V 3.43959 H 0.99897268 V 3.175 h -0.26458 V 2.38125 H 1.5281426 v 0.26459 h 0.26458 V 0.26459 h 0.26458"
       id="path2"
       style="stroke-width:0.264583" />
    <path
       d="m 2.5864726,0.26459 v 2.38125 h 0.26458 V 1.5875 h 0.52917 v 1.05834 h 0.26458 V 1.85209 h 0.52917 v 1.05833 h 0.26458 V 2.11667 h 0.26459 v 0.26458 h 0.26458 v 1.85209 h -0.26458 v 0.79375 h -0.26459 v 0.52916 h -2.11666 V 5.02709 h -0.26459 V 4.49792 h -0.26458 V 3.96875 h -0.26458 V 3.43959 h -0.26459 V 3.175 H 0.99897268 V 2.64584 H 1.5281426 v 0.26458 h 0.26458 V 3.175 h 0.26458 V 0.26459"
       id="path4"
       fill="#ffffff"
       style="stroke-width:0.264583" />
  </g>
</svg>
